<svg width="7" height="13" viewBox="0 0 7 13" fill="none" xmlns="http://www.w3.org/2000/svg">
<path d="M0.939739 12.28C0.813073 12.28 0.686406 12.2333 0.586406 12.1333C0.393073 11.94 0.393073 11.62 0.586406 11.4267L4.93307 7.08001C5.25307 6.76001 5.25307 6.24001 4.93307 5.92001L0.586406 1.57335C0.393073 1.38001 0.393073 1.06001 0.586406 0.86668C0.77974 0.673346 1.09974 0.673346 1.29307 0.86668L5.63974 5.21335C5.97974 5.55335 6.17307 6.01335 6.17307 6.50001C6.17307 6.98668 5.98641 7.44668 5.63974 7.78668L1.29307 12.1333C1.19307 12.2267 1.06641 12.28 0.939739 12.28Z" fill="#949494"/>
</svg>
