<svg width="19" height="20" viewBox="0 0 19 20" fill="none" xmlns="http://www.w3.org/2000/svg">
<path d="M10.4882 9.75267L18.2433 4.86167C17.9501 4.40536 17.5519 4.02593 17.082 3.75513L11.3653 0.455531C10.3137 -0.151844 9.01783 -0.151844 7.96615 0.455531L2.24942 3.75513C1.83677 3.99356 1.47894 4.31621 1.19922 4.70208L9.22125 9.7527C9.60865 9.99552 10.1008 9.99552 10.4882 9.75267ZM8.3335 4.47227C8.33327 3.73651 8.92956 3.13985 9.66536 3.13961C10.4011 3.13937 10.9978 3.73566 10.998 4.47146C10.9983 5.20726 10.402 5.80389 9.66617 5.80412C9.66603 5.80412 9.6659 5.80412 9.66576 5.80412C8.93013 5.80409 8.33371 5.20787 8.3335 4.47227Z" fill="#327BED"/>
<path d="M9.58962 10.4188C9.36269 10.3839 9.14531 10.303 8.95085 10.1809L0.93251 5.13232C0.68053 5.61651 0.54893 6.15427 0.548828 6.70007V13.3013C0.549132 14.5157 1.19713 15.6378 2.24881 16.245L7.96554 19.5454C8.46014 19.8312 9.01888 19.9877 9.59003 20.0001C9.59003 20.0001 9.59003 19.998 9.59003 19.9968L9.58962 10.4188ZM2.61658 15.0866C2.08352 14.6939 1.66516 13.8172 1.66516 13.1221C1.66516 12.427 2.08558 12.1425 2.61864 12.5C3.16802 12.8674 3.62599 13.7678 3.62599 14.5C3.62599 15.2323 3.16596 15.4927 2.61658 15.0866ZM6.70311 13.149C6.17005 12.7548 5.74963 11.8797 5.74963 11.1845C5.74963 10.4894 6.17005 10.2049 6.70311 10.5625C7.25249 10.9299 7.71005 11.8302 7.71005 12.5646C7.71005 13.2988 7.25249 13.5552 6.70311 13.149Z" fill="#327BED"/>
<path d="M18.4814 5.30615L10.7573 10.1808C10.5563 10.3073 10.3308 10.3898 10.0957 10.4229V19.9739C10.543 19.9169 10.9743 19.7713 11.3647 19.5457L17.0814 16.2449C18.1333 15.6376 18.7813 14.5154 18.7814 13.3008V6.70002C18.7813 6.21938 18.679 5.74428 18.4814 5.30615ZM12.2912 18.0298C11.7581 18.3857 11.3377 18.1029 11.3377 17.4077C11.3377 16.7126 11.7581 15.8375 12.2912 15.4433C12.8406 15.0351 13.2981 15.2935 13.2981 16.0278C13.2981 16.7621 12.8406 17.6629 12.2912 18.0298ZM12.2912 13.1874C11.7581 13.5433 11.3377 13.2604 11.3377 12.5653C11.3377 11.8702 11.7581 10.9951 12.2912 10.6008C12.8406 10.1943 13.2977 10.451 13.2977 11.1836C13.2977 11.9163 12.8406 12.8204 12.2912 13.1874ZM16.761 15.1376C16.2279 15.4935 15.8075 15.211 15.8075 14.5155C15.8075 13.82 16.2279 12.9453 16.761 12.551C17.3104 12.1449 17.7679 12.4012 17.7679 13.1355C17.7679 13.8698 17.3104 14.7706 16.761 15.1376ZM16.761 10.2951C16.2279 10.6531 15.8075 10.3674 15.8075 9.67349C15.8075 8.9796 16.2279 8.10328 16.761 7.70899C17.3104 7.30084 17.7679 7.55961 17.7679 8.29348C17.7679 9.02735 17.3104 9.92817 16.761 10.2951Z" fill="#327BED"/>
</svg>
