<svg width="20" height="20" viewBox="0 0 20 20" fill="none" xmlns="http://www.w3.org/2000/svg">
<path d="M17.666 0.725866C17.666 0.493132 17.5478 0.281139 17.3498 0.158796C17.1518 0.0364128 16.9094 0.0254753 16.7012 0.129616L15.166 0.897194V9.60786C15.166 9.79196 15.0167 9.94118 14.8327 9.94118C14.6486 9.94118 14.4993 9.79192 14.4993 9.60786V1.23051L8.66602 4.14715V11.4018L16.7012 15.4194C16.9095 15.5235 17.1519 15.5126 17.3499 15.3902C17.5479 15.2679 17.6661 15.0559 17.6661 14.8232L17.666 0.725866Z" fill="#327BED"/>
<path d="M1.83332 6.10791H1.66664C0.747656 6.10791 0 6.85557 0 7.77455C0 8.69354 0.747656 9.44123 1.66668 9.44123H1.83336L1.83332 6.10791Z" fill="#327BED"/>
<path d="M6.60191 19.4705C6.68852 19.752 6.94457 19.9412 7.2391 19.9412H8.81324C9.02703 19.9412 9.22246 19.8425 9.34949 19.6706C9.47648 19.4986 9.51328 19.2828 9.45039 19.0785L7.2543 11.9412H4.28516L6.60191 19.4705Z" fill="#327BED"/>
<path d="M3.83621 11.2744H7.49918H7.50289H8V4.27441H3.83336C3.09813 4.27441 2.5 4.87254 2.5 5.60777V9.94109C2.5 10.6761 3.09781 11.2741 3.83277 11.2744H3.83621Z" fill="#327BED"/>
<path d="M18.334 5.13623V10.4129C19.2786 10.2537 20.0007 9.43049 20.0007 8.44127V7.10795C20.0007 6.11873 19.2786 5.29545 18.334 5.13623Z" fill="#327BED"/>
</svg>
