<svg width="174" height="196" viewBox="0 0 174 196" fill="none" xmlns="http://www.w3.org/2000/svg">
<path d="M19.4257 193.843C15.4732 183.33 14.8316 181.918 9.13807 166.206C0.773175 143.124 -0.607625 142.798 1.53137 142.885C20.7561 143.674 55.5051 133.796 55.5345 133.788C69.0248 130.603 75.8934 127.974 79.5329 126.473C83.2187 124.953 82.7346 125.117 83.3174 126.511C100.055 166.573 104.611 176.814 105.8 179.56C106.345 180.818 105.922 180.896 105.362 181.113C61.5 198.115 20.8485 197.622 19.4277 193.842L19.4257 193.843ZM78.4482 150.521C77.4517 148.358 54.7176 160.079 17.3917 164.019C16.9181 164.069 16.4256 164.184 16.3972 164.703C16.1473 169.368 80.5021 154.98 78.4482 150.521ZM22.0435 177.677C28.6411 180.059 85.2506 165.114 84.002 161.821C83.4182 160.283 81.4619 162.583 50.5551 170.843C31.4753 175.942 17.7256 176.118 22.0435 177.677ZM76.1905 138.756C75.7558 137.883 67.4739 140.898 66.5561 141.229C37.6371 151.665 3.97068 152.613 12.1844 154.264C22.0183 156.24 78.0775 142.546 76.1905 138.756Z" fill="#6594D1"/>
<path d="M148.472 85.4603C149.521 84.6664 150.884 83.5849 151.213 84.8565C152.017 87.9647 152.794 86.5503 162.793 128.277C165.242 138.495 165.751 137.118 164.698 138.598C158.099 147.87 132.723 169.233 110.768 178.504C109.434 179.068 109.48 179.072 108.903 177.692C85.7124 122.192 84.8871 124.248 86.3834 123.67C111.274 114.075 131.847 98.0475 148.472 85.4603ZM103.908 143.811C106.377 142.98 141.009 123.228 148.149 119.162C150.361 117.902 149.997 118.667 144.351 104.029C143.56 101.978 143.43 102.441 134.059 107.689C102.223 125.523 100.467 126.538 96.0105 129.173C93.8453 130.453 94.2023 130.348 98.6494 137.005C103.388 144.099 103.295 143.88 103.908 143.811ZM156.669 136.996C156.667 135.523 153.281 127.139 152.788 125.963C150.624 120.797 150.455 120.283 149.681 120.597C147.539 121.465 155.763 135.614 154.493 136.815C145.508 145.319 126.6 158.941 115.69 163.973C114.97 164.305 114.601 164.263 114.251 163.485C111.807 158.036 108.848 152.846 106.197 147.502C105.986 147.077 105.751 146.565 105.17 146.779C104.044 147.195 105.946 150.931 106.923 152.898C113.353 165.855 113.592 166.764 115.496 166.025C130.059 160.368 157.11 139.022 156.669 136.996Z" fill="#6594D1"/>
<path d="M145.358 79.242C145.039 79.4237 120.182 84.5197 99.7333 90.062L99.79 90.1796C100.463 91.6319 99.5622 92.8479 98.342 92.8479C97.6993 92.8479 96.7732 92.1527 95.8523 91.1362C90.3646 92.6861 85.3599 94.2487 81.4579 95.7272C70.9697 99.7027 71.4003 98.8196 72.0681 99.9726C72.6341 100.95 79.2431 113.21 80.5926 117.382C81.1029 118.959 79.0458 120.156 77.9517 118.643C75.2078 114.849 68.6102 100.867 68.5262 100.814C67.892 100.408 30.2017 117.258 2.55006 137.276C1.03686 138.372 1.91786 140.711 3.79856 140.601C27.4116 139.213 63.9626 129.636 83.557 121.462C117.912 107.132 140.256 87.9692 148.74 80.3415C150.23 79.0016 145.627 79.1108 145.357 79.2441L145.358 79.242ZM106.341 102.701C104.446 101.562 99.1222 96.3551 100.275 94.2014C101.867 91.2234 106.098 97.1332 108.279 99.7741C109.821 101.641 107.769 103.559 106.341 102.701Z" fill="#6594D1"/>
<path d="M105.875 140.654C105.084 141.103 104.085 140.908 103.52 140.196C101.551 137.72 97.7126 132.073 97.2611 131.362C96.5239 130.202 94.0478 132.676 141.794 105.507C142.847 104.908 142.218 104.995 146.691 116.743C147.207 118.097 146.991 117.267 105.875 140.654ZM120.88 123.87C120.908 127.177 125.922 127.02 125.951 123.808C125.982 120.438 120.851 120.314 120.88 123.87Z" fill="#6594D1"/>
<path d="M142.686 18.0061C138.271 18.0061 137.965 18.1352 137.834 17.4422C137.449 15.3777 148.142 15.8272 147.876 17.46C147.744 18.2717 142.685 18.0302 142.685 18.0061H142.686Z" fill="#191919"/>
<path d="M118 63.4802C117.662 63.5023 117.164 62.8954 117.638 62.3441C118.284 61.5922 122.26 58.0409 122.776 57.583C123.208 57.2008 123.79 56.5823 124.316 57.0328C125.248 57.8309 120.407 63.3259 117.999 63.4813H118V63.4802Z" fill="#191919"/>
<path d="M94.7136 34.3471C93.8903 35.7385 89.395 41.2513 88.579 40.6024C87.1425 39.4589 94.5645 31.6747 94.7136 34.3471Z" fill="#191919"/>
<path d="M131.371 17.5449C135.059 18.3198 129.461 19.6734 126.037 20.735C125.307 20.9618 124.702 21.1424 124.414 20.5638C123.681 19.0937 129.214 17.6866 131.371 17.5449Z" fill="#191919"/>
<path d="M104.254 60.8541C104.774 59.8691 108.164 61.9472 111.156 62.3463C111.62 62.4093 112.012 62.7369 111.894 63.2703C111.427 65.3705 103.449 62.3788 104.254 60.8551V60.8541Z" fill="#191919"/>
<path d="M100.661 32.4171C99.4847 32.4349 99.5477 31.3806 100.282 31.0152C105.408 28.4551 110.021 31.1412 107.5 31.4258C105.152 31.6915 102.773 31.7177 100.661 32.4171Z" fill="#191919"/>
<path d="M117.51 23.7256C118.719 23.9104 117.91 25.117 117.714 25.3123C116.427 26.5944 114.849 27.4891 113.364 28.5045C113.078 28.6998 112.753 28.6578 112.481 28.431C111.219 27.3704 115.996 23.6763 117.51 23.7256Z" fill="#191919"/>
<path d="M106.968 101.655C104.971 100.455 102.996 97.9912 101.704 96.0538C100.876 94.8147 101.373 93.9978 102.638 95.2484C104.319 96.9107 105.836 98.7252 107.34 100.547C107.868 101.185 107.546 101.715 106.968 101.655Z" fill="#191919"/>
<path d="M94.6236 84.5721C95.346 85.2064 98.1256 89.4844 98.6853 90.6909C99.1084 91.6045 98.3062 91.8607 97.8473 91.4196C93.668 87.4021 93.0527 83.1934 94.6236 84.5732V84.5721Z" fill="#191919"/>
<path d="M126.748 50.2873C126.09 50.4501 125.76 49.7066 123.431 43.5206C123.187 42.8738 123.786 42.3057 124.337 42.9484C126.291 45.2281 128.027 49.9733 126.748 50.2884V50.2873Z" fill="#191919"/>
<path d="M88.7082 72.2285C92.5347 79.0582 90.6235 80.5839 88.8447 76.7764C86.7183 72.2296 87.6088 70.2659 88.7082 72.2296V72.2285Z" fill="#191919"/>
<path d="M86.0783 45.5548C87.0979 45.9066 85.1406 51.1769 84.6544 52.6817C84.5378 53.044 84.5714 53.6226 83.996 53.5375C82.4009 53.3002 84.9589 45.1695 86.0783 45.5569V45.5548Z" fill="#191919"/>
<path d="M101.311 41.5769C101.73 39.4137 104.935 34.9267 105.977 35.8592C106.313 36.1595 105.943 36.5764 105.775 36.882C104.611 38.9874 101.311 44.1401 101.311 41.5769Z" fill="#191919"/>
<path d="M100.269 48.1587C101.151 48.8938 100.818 52.2393 101.495 55.1102C101.706 56.0028 101.028 56.2191 100.501 55.568C98.8502 53.5267 99.2177 48.8854 100.269 48.1587Z" fill="#191919"/>
<path d="M86.0215 64.7028C86.011 65.3255 86.3333 66.1971 85.5699 66.364C83.9507 66.7179 83.5622 59.0534 84.8569 59.0293C85.5216 59.0167 85.7736 62.5113 86.0215 64.7028Z" fill="#191919"/>
<path d="M120.916 37.9352C120.255 38.0234 119.729 37.1666 115.101 34.7251C114.513 34.4154 113.747 33.8284 114.16 33.2445C115.023 32.0285 120.947 36.2267 120.916 37.9352Z" fill="#191919"/>
<path d="M157.246 13.6535C148.485 18.5615 160.249 28.8743 169.129 23.6082C177.533 18.6256 166.204 8.63421 157.246 13.6535ZM158.326 21.6026C154.755 19.955 154.765 15.6476 159.077 14.4211C158.644 16.7817 158.104 19.0992 158.326 21.6026ZM164.252 16.0498C163.145 23.0947 164.406 23.4391 163.125 23.2176C161.858 22.9981 160.106 23.1472 160.656 21.8157C160.817 19.3886 161.151 16.9761 161.654 14.5965C161.755 14.125 161.887 13.9318 162.429 13.9475C164.602 14.0116 164.578 13.9853 164.252 16.0498ZM170.238 19.2021C170.209 21.6929 166.306 23.876 166.407 22.4468C166.565 20.207 166.794 17.9777 167.247 15.7747C167.493 14.5902 170.26 17.2427 170.238 19.2021Z" fill="#191919"/>
<path d="M166.933 7.20072C166.812 7.82862 167.148 8.77792 166.154 8.77582C165.175 8.77372 165.555 7.84762 165.517 7.28582C165.327 4.42222 163.637 1.41692 162.138 1.79182C160.495 2.20242 159.868 7.48322 163.25 10.5662C163.492 10.7867 163.806 10.9873 163.615 11.3411C162.867 12.722 158.191 8.76322 159.462 2.76942C160.442 -1.86038 166.378 -0.882785 166.933 7.20072Z" fill="#191919"/>
<path d="M173.363 4.73002C173.025 9.74512 168.757 13.6293 167.873 12.4207C167.544 11.9713 167.84 11.5828 168.219 11.2887C172.073 8.29812 173.187 1.25322 169.897 2.89232C168.311 3.68202 167.827 4.60822 167.289 4.02432C166.214 2.85662 172.88 -2.12698 173.363 4.73002Z" fill="#191919"/>
</svg>
