<svg width="16" height="18" viewBox="0 0 16 18" fill="none" xmlns="http://www.w3.org/2000/svg">
<path fill-rule="evenodd" clip-rule="evenodd" d="M15.2923 1.50008V17.3334C15.2923 17.5651 15.164 17.7776 14.959 17.8859C14.754 17.9942 14.5065 17.9801 14.3148 17.8492L12.2357 16.4301L10.2698 17.8409C10.034 18.0109 9.71232 17.9951 9.49398 17.8034L8.00065 16.4976L6.50732 17.8034C6.28898 17.9951 5.96732 18.0109 5.73148 17.8409L3.76565 16.4301L1.68648 17.8492C1.49482 17.9801 1.24732 17.9942 1.04232 17.8859C0.837318 17.7776 0.708984 17.5651 0.708984 17.3334V1.50008C0.708984 0.695081 1.36148 0.041748 2.16732 0.041748H13.834C14.6398 0.041748 15.2923 0.695081 15.2923 1.50008ZM4.66732 7.95842H11.334C11.679 7.95842 11.959 7.67842 11.959 7.33342C11.959 6.98842 11.679 6.70842 11.334 6.70842H4.66732C4.32232 6.70842 4.04232 6.98842 4.04232 7.33342C4.04232 7.67842 4.32232 7.95842 4.66732 7.95842ZM4.66732 4.62508H11.334C11.679 4.62508 11.959 4.34508 11.959 4.00008C11.959 3.65508 11.679 3.37508 11.334 3.37508H4.66732C4.32232 3.37508 4.04232 3.65508 4.04232 4.00008C4.04232 4.34508 4.32232 4.62508 4.66732 4.62508ZM4.66732 11.2917H8.00065C8.34565 11.2917 8.62565 11.0117 8.62565 10.6667C8.62565 10.3217 8.34565 10.0417 8.00065 10.0417H4.66732C4.32232 10.0417 4.04232 10.3217 4.04232 10.6667C4.04232 11.0117 4.32232 11.2917 4.66732 11.2917Z" fill="#327BED"/>
</svg>
