<svg width="16" height="20" viewBox="0 0 16 20" fill="none" xmlns="http://www.w3.org/2000/svg">
<path d="M3.12031 19.5999H12.8803C14.4003 19.5999 15.6803 18.3199 15.6803 16.7999V3.1999C15.6803 1.6799 14.4003 0.399902 12.8803 0.399902H3.12031C1.60031 0.399902 0.320312 1.6799 0.320312 3.1999V16.7999C0.320312 18.3199 1.60031 19.5999 3.12031 19.5999ZM8.00031 2.8799C9.20031 2.8799 10.2403 3.9199 10.2403 5.1199C10.2403 6.3199 9.20031 7.3599 8.00031 7.3599C6.72031 7.3599 5.76031 6.3199 5.76031 5.1199C5.76031 3.9199 6.72031 2.8799 8.00031 2.8799ZM4.00031 11.5199C4.32031 10.2399 5.20031 9.1199 6.40031 8.6399C6.88031 8.8799 7.44031 8.9599 8.00031 8.9599C8.56031 8.9599 9.12031 8.7999 9.60031 8.6399C10.8003 9.1199 11.6803 10.2399 12.0003 11.5199C12.0803 11.9199 12.0003 12.3199 11.7603 12.5599C11.5203 12.7999 11.1203 13.0399 10.7203 13.0399H5.28031C4.88031 13.0399 4.48031 12.8799 4.24031 12.5599C4.00031 12.3199 3.92031 11.9199 4.00031 11.5199ZM3.52031 15.5199H12.5603C13.0403 15.5199 13.3603 15.8399 13.3603 16.3199C13.3603 16.7199 13.0403 17.1199 12.5603 17.1199H3.52031C3.12031 17.1199 2.72031 16.7199 2.72031 16.3199C2.72031 15.8399 3.04031 15.5199 3.52031 15.5199Z" fill="#327BED"/>
</svg>
