<svg width="20" height="20" viewBox="0 0 20 20" fill="none" xmlns="http://www.w3.org/2000/svg">
<path d="M7.2268 1.5625C8.04996 1.5625 8.75258 0.997461 8.93602 0.204727C8.38781 0.0712891 7.81551 0 7.2268 0C6.63809 0 6.06578 0.0712891 5.51758 0.204727C5.70102 0.997461 6.40363 1.5625 7.2268 1.5625Z" fill="#327BED"/>
<path d="M1.5625 7.22655C1.5625 6.40339 0.997461 5.70077 0.204727 5.51733C0.0712891 6.06554 0 6.63784 0 7.22655C0 7.81526 0.0712891 8.38757 0.204727 8.93577C0.997461 8.75233 1.5625 8.04972 1.5625 7.22655Z" fill="#327BED"/>
<path d="M8.17625 5.74855C7.90215 5.5718 7.57625 5.46875 7.22656 5.46875C6.2573 5.46875 5.46875 6.2573 5.46875 7.22656C5.46875 7.57625 5.5718 7.90215 5.74855 8.17625C6.38273 7.21043 7.21043 6.38273 8.17625 5.74855Z" fill="#327BED"/>
<path d="M7.22574 4.29679C8.02402 4.29679 8.7484 4.61808 9.27734 5.13768C10.3421 4.64831 11.526 4.37491 12.7726 4.37491C13.1541 4.37491 13.5296 4.40101 13.8978 4.4505C13.1712 2.71089 11.7834 1.31374 10.0502 0.574951C9.70797 1.84163 8.56199 2.73429 7.22574 2.73429C5.88949 2.73429 4.74352 1.84163 4.40129 0.574951C2.68418 1.30687 1.30613 2.68491 0.574219 4.40202C1.8409 4.74425 2.73355 5.89022 2.73355 7.22647C2.73355 8.56272 1.8409 9.7087 0.574219 10.0509C1.31301 11.7842 2.7102 13.172 4.44977 13.8985C4.40027 13.5303 4.37418 13.1549 4.37418 12.7733C4.37418 11.5267 4.64758 10.3429 5.13695 9.27808C4.61734 8.74913 4.29605 8.02476 4.29605 7.22647C4.29605 5.61104 5.61031 4.29679 7.22574 4.29679Z" fill="#327BED"/>
<path d="M11.0645 5.7516C11.2479 6.54434 11.9505 7.10938 12.7737 7.10938C13.5968 7.10938 14.2995 6.54434 14.4829 5.7516C13.9347 5.61816 13.3624 5.54688 12.7737 5.54688C12.185 5.54688 11.6127 5.61816 11.0645 5.7516Z" fill="#327BED"/>
<path d="M19.7953 11.0642C19.0025 11.2476 18.4375 11.9503 18.4375 12.7734C18.4375 13.5966 19.0025 14.2992 19.7953 14.4826C19.9287 13.9344 20 13.3621 20 12.7734C20 12.1847 19.9287 11.6124 19.7953 11.0642Z" fill="#327BED"/>
<path d="M7.10938 12.7734C7.10938 11.9503 6.54434 11.2476 5.7516 11.0642C5.61816 11.6124 5.54688 12.1847 5.54688 12.7734C5.54688 13.3621 5.61816 13.9344 5.7516 14.4826C6.54434 14.2992 7.10938 13.5966 7.10938 12.7734Z" fill="#327BED"/>
<path d="M12.7734 14.5312C13.7443 14.5312 14.5312 13.7443 14.5312 12.7734C14.5312 11.8026 13.7443 11.0156 12.7734 11.0156C11.8026 11.0156 11.0156 11.8026 11.0156 12.7734C11.0156 13.7443 11.8026 14.5312 12.7734 14.5312Z" fill="#327BED"/>
<path d="M12.7737 18.4375C11.9505 18.4375 11.2479 19.0025 11.0645 19.7953C11.6127 19.9287 12.185 20 12.7737 20C13.3624 20 13.9347 19.9287 14.4829 19.7953C14.2995 19.0025 13.5968 18.4375 12.7737 18.4375Z" fill="#327BED"/>
<path d="M17.2648 12.7733C17.2648 11.4371 18.1575 10.2911 19.4241 9.9489C18.6922 8.23179 17.3142 6.85374 15.5971 6.12183C15.2548 7.38851 14.1089 8.28116 12.7726 8.28116C11.4364 8.28116 10.2904 7.38851 9.94816 6.12183C8.23106 6.85374 6.85301 8.23179 6.12109 9.9489C7.38777 10.2911 8.28043 11.4371 8.28043 12.7733C8.28043 14.1096 7.38777 15.2556 6.12109 15.5978C6.85301 17.3149 8.23106 18.693 9.94816 19.4249C10.2904 18.1582 11.4364 17.2655 12.7726 17.2655C14.1089 17.2655 15.2548 18.1582 15.5971 19.4249C17.3142 18.693 18.6922 17.3149 19.4241 15.5978C18.1575 15.2556 17.2648 14.1096 17.2648 12.7733ZM12.7726 15.703C11.1572 15.703 9.84293 14.3888 9.84293 12.7733C9.84293 11.1579 11.1572 9.84366 12.7726 9.84366C14.388 9.84366 15.7023 11.1579 15.7023 12.7733C15.7023 14.3888 14.388 15.703 12.7726 15.703Z" fill="#327BED"/>
</svg>
