<svg width="240" height="195" viewBox="0 0 240 195" fill="none" xmlns="http://www.w3.org/2000/svg">
<circle cx="114.73" cy="108.919" r="72.027" fill="#EBF8E8"/>
<circle cx="114.73" cy="108.919" r="52.7027" fill="#C5EBBA"/>
<path opacity="0.99" d="M108.54 122.104C108.127 122.104 107.717 122.021 107.336 121.859C106.954 121.697 106.607 121.459 106.315 121.16L97.4626 112.102C96.8785 111.496 96.5521 110.679 96.5547 109.829C96.5573 108.978 96.8887 108.163 97.4764 107.562C98.0642 106.96 98.8606 106.621 99.6919 106.618C100.523 106.616 101.322 106.95 101.913 107.547L108.54 114.328L125.79 96.6774C126.382 96.0798 127.18 95.7459 128.012 95.7486C128.843 95.7512 129.639 96.0903 130.227 96.6918C130.815 97.2933 131.146 98.1083 131.149 98.9588C131.151 99.8094 130.825 100.627 130.241 101.232L110.766 121.16C110.474 121.459 110.127 121.697 109.745 121.859C109.363 122.021 108.954 122.104 108.54 122.104Z" fill="white"/>
<path d="M113.852 76.7114C107.627 76.7114 101.542 78.6003 96.3655 82.1393C91.1894 85.6783 87.1552 90.7084 84.7729 96.5935C82.3906 102.479 81.7673 108.954 82.9818 115.202C84.1962 121.45 87.194 127.188 91.5958 131.693C95.9977 136.197 101.606 139.264 107.712 140.507C113.817 141.75 120.146 141.112 125.897 138.674C131.649 136.237 136.564 132.108 140.023 126.812C143.481 121.516 145.327 115.289 145.327 108.919C145.318 100.38 141.999 92.1934 136.098 86.1555C130.197 80.1176 122.197 76.7212 113.852 76.7114ZM130.241 101.232L110.766 121.16C110.474 121.459 110.127 121.696 109.745 121.858C109.363 122.02 108.954 122.103 108.541 122.103C108.127 122.103 107.718 122.02 107.336 121.858C106.954 121.696 106.607 121.459 106.315 121.16L97.463 112.102C96.879 111.496 96.5526 110.679 96.5552 109.829C96.5578 108.978 96.8891 108.163 97.4769 107.562C98.0647 106.96 98.8611 106.621 99.6924 106.618C100.524 106.616 101.322 106.95 101.914 107.547L108.541 114.328L125.791 96.6774C126.382 96.0797 127.181 95.7458 128.012 95.7485C128.843 95.7512 129.64 96.0903 130.227 96.6918C130.815 97.2932 131.147 98.1082 131.149 98.9588C131.152 99.8094 130.825 100.626 130.241 101.232Z" fill="#53C330"/>
<path d="M50.1385 13.6461L56.3496 7.43506" stroke="#B5B5B5" stroke-width="1.5" stroke-linecap="round"/>
<path d="M50.1385 7.43492L56.3496 13.646" stroke="#B5B5B5" stroke-width="1.5" stroke-linecap="round"/>
<path d="M183.652 187.565L189.863 181.354" stroke="#B5B5B5" stroke-width="1.5" stroke-linecap="round"/>
<path d="M183.652 181.354L189.863 187.565" stroke="#B5B5B5" stroke-width="1.5" stroke-linecap="round"/>
<path d="M23.3793 182.117C22.2211 182.117 21.0889 182.461 20.126 183.104C19.163 183.748 18.4124 184.662 17.9692 185.732C17.526 186.802 17.41 187.98 17.636 189.115C17.8619 190.251 18.4196 191.295 19.2386 192.114C20.0575 192.933 21.101 193.49 22.2369 193.716C23.3728 193.942 24.5502 193.826 25.6202 193.383C26.6903 192.94 27.6048 192.189 28.2483 191.226C28.8917 190.263 29.2352 189.131 29.2352 187.973C29.2352 187.204 29.0837 186.443 28.7894 185.732C28.4951 185.022 28.0638 184.376 27.52 183.832C26.9762 183.289 26.3307 182.857 25.6202 182.563C24.9098 182.269 24.1483 182.117 23.3793 182.117ZM23.3793 192.658C22.4528 192.658 21.547 192.383 20.7766 191.868C20.0062 191.353 19.4058 190.622 19.0512 189.766C18.6966 188.91 18.6039 187.968 18.7846 187.059C18.9654 186.15 19.4116 185.316 20.0667 184.66C20.7219 184.005 21.5566 183.559 22.4654 183.378C23.3741 183.198 24.316 183.29 25.172 183.645C26.0281 184 26.7597 184.6 27.2745 185.37C27.7892 186.141 28.064 187.047 28.064 187.973C28.064 189.215 27.5704 190.407 26.6919 191.286C25.8133 192.164 24.6218 192.658 23.3793 192.658Z" fill="#B5B5B5"/>
<path d="M232.434 97.793C231.276 97.793 230.144 98.1364 229.181 98.7799C228.218 99.4233 227.467 100.338 227.024 101.408C226.581 102.478 226.465 103.655 226.691 104.791C226.917 105.927 227.474 106.971 228.293 107.79C229.112 108.608 230.156 109.166 231.292 109.392C232.427 109.618 233.605 109.502 234.675 109.059C235.745 108.616 236.66 107.865 237.303 106.902C237.946 105.939 238.29 104.807 238.29 103.649C238.29 102.88 238.138 102.118 237.844 101.408C237.55 100.697 237.118 100.052 236.575 99.5081C236.031 98.9643 235.385 98.533 234.675 98.2387C233.964 97.9444 233.203 97.793 232.434 97.793ZM232.434 108.334C231.507 108.334 230.602 108.059 229.831 107.544C229.061 107.029 228.46 106.298 228.106 105.442C227.751 104.586 227.659 103.644 227.839 102.735C228.02 101.826 228.466 100.991 229.121 100.336C229.777 99.6811 230.611 99.2349 231.52 99.0542C232.429 98.8734 233.371 98.9662 234.227 99.3207C235.083 99.6753 235.814 100.276 236.329 101.046C236.844 101.817 237.119 102.722 237.119 103.649C237.119 104.891 236.625 106.083 235.747 106.961C234.868 107.84 233.676 108.334 232.434 108.334Z" fill="#B5B5B5"/>
<circle cx="4.93291" cy="85.2029" r="4.39189" fill="#53C330"/>
<circle cx="191.15" cy="28.9866" r="4.39189" fill="#53C330"/>
</svg>
