<svg width="21" height="16" viewBox="0 0 21 16" fill="none" xmlns="http://www.w3.org/2000/svg">
<path d="M20.0123 8.72811C20.0432 9.4665 19.7799 10.187 19.2803 10.7316C18.7806 11.2761 18.0854 11.6002 17.347 11.6328C17.3039 11.6348 17.2608 11.6358 17.2177 11.6358C17.0216 11.6357 16.826 11.6144 16.6343 11.5725C16.0657 12.4504 15.3202 13.2 14.4453 13.7733C13.5704 14.3465 12.5855 14.7309 11.5536 14.9018C11.4315 15.2603 11.188 15.565 10.8652 15.7631C10.5423 15.9612 10.1604 16.0402 9.78548 15.9866C9.41052 15.933 9.06608 15.75 8.81171 15.4693C8.55734 15.1887 8.40902 14.828 8.39238 14.4496C8.37575 14.0712 8.49185 13.6988 8.72061 13.397C8.94937 13.0951 9.27643 12.8826 9.64523 12.7963C10.014 12.7099 10.4014 12.7552 10.7404 12.9242C11.0794 13.0931 11.3487 13.3753 11.5017 13.7217C12.9545 13.453 14.267 12.6831 15.2103 11.546C16.1537 10.409 16.6682 8.97694 16.664 7.49951C16.664 4.00908 13.8244 1.16943 10.334 1.16943C6.84352 1.16943 4.00388 4.00908 4.00388 7.49951C4.00369 8.57881 4.27952 9.64022 4.80517 10.5829C4.82298 10.614 4.83635 10.6474 4.84489 10.6822C4.89566 10.8234 4.89024 10.9786 4.82973 11.1158C4.76923 11.2531 4.65828 11.3618 4.51985 11.4195C4.18089 11.5621 3.81683 11.6356 3.44907 11.6355C3.40579 11.6355 3.36242 11.6345 3.31895 11.6325C2.58094 11.5995 1.88613 11.2752 1.38686 10.7307C0.8876 10.1862 0.624637 9.46593 0.655634 8.72783C0.668095 8.4335 0.661142 8.17088 0.654345 7.91693C0.648017 7.67783 0.641415 7.43057 0.652275 7.17256C0.684684 6.45188 0.994694 5.77169 1.51737 5.27446C2.04005 4.77723 2.73486 4.50152 3.45626 4.5051C4.6147 1.85463 7.2613 -0.00244141 10.334 -0.00244141C13.4066 -0.00244141 16.0533 1.85463 17.2117 4.50514C17.9332 4.50102 18.6282 4.77649 19.151 5.27373C19.6737 5.77097 19.9836 6.45135 20.0156 7.17213C20.0265 7.43053 20.0199 7.67775 20.0135 7.91686C20.0068 8.17084 19.9998 8.43357 20.0123 8.72811ZM15.2482 7.49951C15.2479 8.25238 15.0747 8.99513 14.742 9.67047C14.4092 10.3458 13.9258 10.9357 13.329 11.3947C12.7322 11.8536 12.038 12.1694 11.2999 12.3176C10.5617 12.4658 9.7994 12.4425 9.07169 12.2495L7.08259 13.3982C6.98222 13.4562 6.86693 13.4831 6.75128 13.4755C6.63563 13.4679 6.52482 13.4262 6.43287 13.3557C6.34093 13.2851 6.27197 13.1889 6.23471 13.0791C6.19746 12.9694 6.1936 12.8511 6.2236 12.7391L6.73196 10.8427C5.89009 9.93275 5.42166 8.73918 5.41989 7.49951C5.41989 4.78904 7.62423 2.58412 10.334 2.58412C13.0437 2.58412 15.2482 4.78904 15.2482 7.49951ZM8.96774 7.49951C8.96774 7.34411 8.90601 7.19508 8.79613 7.08519C8.68624 6.97531 8.53721 6.91357 8.38181 6.91357H8.38083C8.26499 6.91379 8.15181 6.94834 8.0556 7.01285C7.95939 7.07737 7.88446 7.16895 7.84027 7.27604C7.79609 7.38312 7.78465 7.5009 7.80738 7.61449C7.83011 7.72808 7.886 7.83238 7.96799 7.91422C8.04998 7.99605 8.15438 8.05175 8.26801 8.07427C8.38164 8.09679 8.4994 8.08512 8.6064 8.04074C8.71341 7.99636 8.80485 7.92126 8.86919 7.82493C8.93352 7.72859 8.96786 7.61535 8.96786 7.49951H8.96774ZM10.92 7.49951C10.92 7.48033 10.9189 7.46116 10.9169 7.44209C10.915 7.42294 10.9122 7.4039 10.9083 7.38506C10.9048 7.36628 10.9001 7.34776 10.8942 7.32959C10.8888 7.31123 10.8822 7.29326 10.8751 7.27529C10.8681 7.25732 10.8595 7.24053 10.8505 7.22373C10.8416 7.20684 10.8318 7.19041 10.8212 7.17451C10.8105 7.15845 10.7991 7.14293 10.7868 7.12803C10.7748 7.1131 10.7619 7.09888 10.7482 7.08545C10.7349 7.07178 10.7204 7.05889 10.7056 7.04639C10.6907 7.03467 10.6751 7.02295 10.6591 7.0124C10.6432 7.00181 10.6268 6.99203 10.6099 6.98311C10.5931 6.97412 10.5755 6.96592 10.5579 6.9585C10.5403 6.95113 10.5223 6.94474 10.504 6.93936C10.4675 6.92762 10.4298 6.92002 10.3915 6.9167C10.3341 6.91117 10.2763 6.91394 10.2197 6.9249C10.2008 6.92875 10.1822 6.93357 10.1638 6.93936C10.1455 6.94473 10.1275 6.95112 10.1099 6.9585C10.0924 6.96592 10.0748 6.97412 10.058 6.98311C10.0412 6.99209 10.0248 7.00186 10.0087 7.0124C9.99267 7.02295 9.97708 7.03467 9.96267 7.04639C9.94743 7.05889 9.93337 7.07178 9.9197 7.08545C9.90599 7.09889 9.89306 7.1131 9.88099 7.12803C9.86889 7.14294 9.85756 7.15845 9.84704 7.17451C9.8363 7.1904 9.8264 7.20682 9.81735 7.22373C9.80834 7.24047 9.80024 7.25768 9.7931 7.27529C9.78568 7.29305 9.77916 7.31117 9.77356 7.32959C9.76813 7.34756 9.76345 7.36631 9.75954 7.38506C9.75568 7.40391 9.7528 7.42294 9.75091 7.44209C9.74899 7.46123 9.74817 7.48037 9.74817 7.49951C9.74817 7.51865 9.74899 7.53818 9.75091 7.55732C9.75283 7.57634 9.75571 7.59524 9.75954 7.61396C9.76345 7.63271 9.76813 7.65146 9.77356 7.66982C9.77916 7.68811 9.78568 7.7061 9.7931 7.72373C9.80024 7.74147 9.80834 7.75881 9.81735 7.77568C9.8263 7.79248 9.83649 7.80889 9.84704 7.8249C9.85756 7.84084 9.86889 7.85622 9.88099 7.871C9.89316 7.88596 9.90608 7.9003 9.9197 7.91397C9.93337 7.92725 9.94743 7.94053 9.96267 7.95264C9.97736 7.96483 9.99273 7.97618 10.0087 7.98662C10.0248 7.99717 10.0411 8.00732 10.058 8.01631C10.0919 8.03399 10.1273 8.04863 10.1638 8.06006C10.1822 8.06553 10.2009 8.07022 10.2197 8.07412C10.2573 8.08183 10.2957 8.08562 10.3341 8.08545C10.4893 8.08504 10.6381 8.02342 10.7482 7.91397C10.7752 7.88656 10.7996 7.85675 10.8212 7.8249C10.8318 7.80889 10.8415 7.79248 10.8505 7.77568C10.8595 7.75889 10.8677 7.74131 10.8751 7.72373C10.8825 7.70615 10.8888 7.68779 10.8942 7.66982C10.9001 7.65151 10.9048 7.63286 10.9083 7.61396C10.9122 7.59524 10.915 7.57634 10.9169 7.55732C10.9189 7.53809 10.9199 7.51877 10.9199 7.49943L10.92 7.49951ZM12.8731 7.49951C12.8731 7.34411 12.8114 7.19508 12.7015 7.08519C12.5916 6.97531 12.4426 6.91357 12.2872 6.91357H12.2861C12.1702 6.9138 12.0571 6.94835 11.9608 7.01287C11.8646 7.07739 11.7897 7.16898 11.7455 7.27607C11.7014 7.38315 11.6899 7.50093 11.7127 7.61452C11.7354 7.7281 11.7913 7.8324 11.8733 7.91423C11.9553 7.99606 12.0597 8.05175 12.1733 8.07427C12.2869 8.09679 12.4047 8.08512 12.5117 8.04074C12.6187 7.99636 12.7101 7.92126 12.7745 7.82492C12.8388 7.72859 12.8731 7.61535 12.8731 7.49951Z" fill="#327BED"/>
</svg>
